# xmcd CD database file
#
# Track frame offsets:
#	182
#	11677
#	24652
#	35375
#	46287
#	62142
#	72787
#	86582
#	99957
#	111072
#	124485
#	134135
#	145922
#	154390
#	165292
#	177945
#	189277
#	199322
#	211707
#	222795
#	234565
#	248317
#	260432
#	273250
#	283982
#
# Disc length: 3892 seconds
#
# Revision: 5
# Processed by: cddbd v1.5.2PL0 Copyright (c) Steve Scherf et al.
# Submitted via: CDex 1.50
#
DISCID=680f3219
DTITLE=Verschiedene - 25 Country and Western Ballads Vol.2
DYEAR=1900
DGENRE=Country
TTITLE0=Before The Next Teardrop falls (Freddie Fender)
TTITLE1=Ruby don't Take Your Love To Town (Kenny Rogers)
TTITLE2=Honky Tonk Merry Go Round (Patsy Cline)
TTITLE3=Help Me Make It Through The Night (Sammi Smith)
TTITLE4=Blanket On The Ground (Billie Jo Spears)
TTITLE5=Sixteen Tons (Frankie Laine)
TTITLE6=Home Is Where You're Happy (Willie Nelson)
TTITLE7=Tennessee Waltz (Patti Page)
TTITLE8=Tender Years (George Jones)
TTITLE9=Ruby Tuesday (Don Williams)
TTITLE10=Foggy Mountain Breakdown (Flatt and Scruggs)
TTITLE11=The Happiest Girl In The Whole U.S.A. (Donna Fargo)
TTITLE12=Country Boy (Johnny Cash)
TTITLE13=Redwing (Glenn Campbell)
TTITLE14=Almost Persuaded (Freddie Fender)
TTITLE15=Answer Me (Frankie Lane)
TTITLE16=Release Me (Dolly Parton)
TTITLE17=I Walk The Line (Johnny Cash)
TTITLE18=You Are My Sunshine (Gene Autry)
TTITLE19=Crying (Waylon Jennings)
TTITLE20=I'm Gonna Sing You A Sad Song Suzy (Kenny Rogers)
TTITLE21=Don't Want To Fall Away From You April (Pat Boone)
TTITLE22=Grananda (Frankie Lane)
TTITLE23=Train Of Love (Johnny Cash)
TTITLE24=Things Of Remember (Willie Nelson)
EXTD=
EXTT0=
EXTT1=
EXTT2=
EXTT3=
EXTT4=
EXTT5=
EXTT6=
EXTT7=
EXTT8=
EXTT9=
EXTT10=
EXTT11=
EXTT12=
EXTT13=
EXTT14=
EXTT15=
EXTT16=
EXTT17=
EXTT18=
EXTT19=
EXTT20=
EXTT21=
EXTT22=
EXTT23=
EXTT24=
PLAYORDER=
